Passive_07_3plates.mot
version=1
nRows=100
nColumns=19
inDegrees=yes
endheader
time	ground_force_vx	ground_force_vy	ground_force_vz	ground_force_px	ground_force_py	ground_force_pz	1_ground_force_vx	1_ground_force_vy	1_ground_force_vz	1_ground_force_px	1_ground_force_py	1_ground_force_pz	ground_torque_x	ground_torque_y	ground_torque_z	1_ground_torque_x	1_ground_torque_y	1_ground_torque_z	
0.53271	120.92	622.88	15.812	-0.36316	0	0.19737	24.444	220.35	7.4472	0.14382	0	0.29719	0	15.831	0	0	-3.3435	0
0.53313	121.12	622.88	15.637	-0.36313	0	0.19747	25.178	225.03	8.3767	0.14313	0	0.29718	0	15.853	0	0	-3.0728	0
0.53354	121.6	621.91	15.939	-0.36301	0	0.1976	24.408	229.01	8.4558	0.14328	0	0.29694	0	15.883	0	0	-3.0188	0
0.53396	121.82	620.41	15.786	-0.36284	0	0.19757	22.383	232.2	8.0894	0.14162	0	0.29605	0	15.892	0	0	-3.2066	0
0.53438	121.99	619.88	15.916	-0.36288	0	0.19762	19.701	235.56	7.3705	0.14036	0	0.29569	0	15.918	0	0	-3.5325	0
0.53479	122.43	618.29	15.913	-0.36259	0	0.19762	17.48	239.43	7.1822	0.14041	0	0.29581	0	15.948	0	0	-3.8019	0
0.53521	122.62	617.32	15.846	-0.36262	0	0.19755	16.688	243.75	7.2149	0.14043	0	0.29585	0	15.961	0	0	-3.8104	0
0.53563	122.77	616.26	15.867	-0.36251	0	0.19762	17.189	249.72	7.5932	0.14193	0	0.29607	0	15.982	0	0	-3.5286	0
0.53604	122.99	614.41	15.89	-0.3625	0	0.19765	17.251	255.36	8.1619	0.14147	0	0.29541	0	15.982	0	0	-3.294	0
0.53646	123.16	613.96	15.954	-0.3625	0	0.19771	16.465	261.84	8.95	0.14277	0	0.29567	0	16.008	0	0	-3.4527	0
0.53688	123.38	611.94	15.669	-0.36203	0	0.1976	13.733	267.62	8.9274	0.14291	0	0.2955	0	16.003	0	0	-3.6824	0
0.53729	123.7	610.7	15.538	-0.36209	0	0.1976	10.919	272.18	8.9874	0.14229	0	0.29555	0	16.007	0	0	-4.0064	0
0.53771	123.68	609.3	15.842	-0.36188	0	0.19772	8.8147	276.92	8.9077	0.14437	0	0.29574	0	16.063	0	0	-4.3203	0
0.53813	124.14	607.44	15.927	-0.36179	0	0.19763	7.6308	280.38	8.8623	0.14364	0	0.29503	0	16.076	0	0	-4.305	0
0.53854	124.38	607.17	16.036	-0.36188	0	0.19769	6.8509	284.79	8.9096	0.14301	0	0.29444	0	16.08	0	0	-4.1309	0
0.53896	124.47	605.59	16.035	-0.36167	0	0.19785	5.8718	289.8	9.2408	0.14382	0	0.29467	0	16.115	0	0	-3.8749	0
0.53938	124.46	603.74	16.102	-0.3616	0	0.19766	4.2792	295.5	9.7663	0.14262	0	0.29449	0	16.083	0	0	-3.9636	0
0.53979	125.01	602.15	15.947	-0.36156	0	0.19758	2.5374	301.2	10.257	0.14107	0	0.29482	0	16.101	0	0	-4.3072	0
0.54021	125.18	600.3	16.273	-0.36138	0	0.19765	0.97989	306.3	10.919	0.13943	0	0.2945	0	16.126	0	0	-4.7706	0
0.54063	125.35	598.54	16.294	-0.36116	0	0.19774	0.2734	311.58	11.426	0.14054	0	0.29426	0	16.156	0	0	-5.3696	0
0.54105	125.35	597.4	16.449	-0.36112	0	0.19777	-1.1509	317.38	11.813	0.1436	0	0.29363	0	16.125	0	0	-5.7077	0
0.54146	125.33	596.25	16.1	-0.3611	0	0.19788	-2.6438	322.73	12.497	0.1466	0	0.29382	0	16.16	0	0	-5.6555	0
0.54188	125.55	594.13	16.208	-0.36094	0	0.1977	-5.0533	328.34	13.121	0.14904	0	0.29367	0	16.155	0	0	-5.642	0
0.5423	125.74	592.64	16.382	-0.36073	0	0.19775	-7.3681	332.47	13.442	0.14827	0	0.29377	0	16.172	0	0	-5.7561	0
0.54271	125.57	591.94	16.648	-0.36087	0	0.19792	-9.2758	335.4	13.633	0.14538	0	0.29351	0	16.132	0	0	-5.8609	0
0.54313	125.7	590.44	16.538	-0.3605	0	0.19788	-10.789	338.43	14.056	0.14292	0	0.29311	0	16.11	0	0	-6.147	0
0.54355	125.7	588.15	16.649	-0.36052	0	0.19777	-11.691	343.54	14.509	0.14179	0	0.29255	0	16.101	0	0	-6.5356	0
0.54396	125.8	585.77	16.453	-0.36037	0	0.19764	-12.428	348.47	15.095	0.14117	0	0.29237	0	16.104	0	0	-6.9064	0
0.54438	125.82	584.19	16.584	-0.36034	0	0.19773	-13.596	354.78	15.938	0.14325	0	0.29266	0	16.134	0	0	-7.1319	0
0.5448	125.6	581.64	16.611	-0.36006	0	0.19771	-15.2	361	16.962	0.14599	0	0.29275	0	16.051	0	0	-7.233	0
0.54521	125.71	580.5	16.805	-0.35989	0	0.19777	-17.365	365.92	17.096	0.14673	0	0.29225	0	16.09	0	0	-7.2824	0
0.54563	125.51	577.95	16.919	-0.3597	0	0.19772	-19.415	370.41	17.122	0.14771	0	0.29169	0	16.032	0	0	-7.342	0
0.54605	125.58	576.63	16.855	-0.35966	0	0.19772	-21.039	374.47	17.446	0.14871	0	0.29172	0	16.014	0	0	-7.547	0
0.54646	125.32	575.14	16.9	-0.3596	0	0.19781	-22.3	376.98	17.848	0.1475	0	0.29143	0	16.014	0	0	-7.7528	0
0.54688	125.42	572.85	17.228	-0.35937	0	0.19777	-23.29	381.21	18.414	0.14635	0	0.29127	0	16.013	0	0	-8.0075	0
0.5473	125.49	571.44	17.253	-0.35937	0	0.19779	-24.314	386.66	19.451	0.14674	0	0.29148	0	15.956	0	0	-8.4157	0
0.54771	125.36	569.51	17.167	-0.35913	0	0.19784	-25.462	391.6	20.313	0.14651	0	0.29106	0	15.951	0	0	-8.7707	0
0.54813	125.12	567.66	17.367	-0.35912	0	0.19799	-27.044	395.48	21.039	0.1457	0	0.29095	0	15.929	0	0	-8.9197	0
0.54855	125.22	564.93	17.413	-0.35882	0	0.19795	-28.281	399.72	21.628	0.14593	0	0.29103	0	15.893	0	0	-9.1221	0
0.54896	125.05	563.61	17.479	-0.3589	0	0.19798	-29.503	404.99	21.87	0.14797	0	0.29081	0	15.914	0	0	-9.2509	0
0.54938	125.09	560.54	17.614	-0.35859	0	0.19784	-30.584	409.22	22.226	0.14862	0	0.29097	0	15.844	0	0	-9.3073	0
0.5498	125.05	559.13	17.812	-0.35849	0	0.19797	-31.807	413.98	22.361	0.15018	0	0.29061	0	15.821	0	0	-9.4552	0
0.55022	124.76	556.4	17.748	-0.35843	0	0.19774	-32.936	418.73	22.76	0.15113	0	0.2906	0	15.825	0	0	-9.5474	0
0.55063	124.65	554.12	17.817	-0.35806	0	0.19783	-34.179	423.57	23.073	0.1503	0	0.29059	0	15.789	0	0	-9.8012	0
0.55105	124.58	552.62	17.754	-0.35799	0	0.19801	-35.1	427.04	23.712	0.1491	0	0.29029	0	15.767	0	0	-10.012	0
0.55147	124.43	550.95	17.975	-0.35797	0	0.19801	-35.888	430.76	24.342	0.14815	0	0.29004	0	15.736	0	0	-10.095	0
0.55188	124.36	548.14	18.369	-0.35795	0	0.19797	-36.427	435.6	24.821	0.14816	0	0.29002	0	15.757	0	0	-10.12	0
0.5523	124.38	545.85	18.11	-0.35776	0	0.19798	-36.965	440.18	25.029	0.14825	0	0.29023	0	15.721	0	0	-10.118	0
0.55272	124.25	543.47	18.243	-0.35753	0	0.19808	-38.242	445.54	25.011	0.15064	0	0.29001	0	15.707	0	0	-9.9922	0
0.55313	124.09	540.75	18.442	-0.35729	0	0.19802	-39.552	450.54	24.839	0.15219	0	0.29063	0	15.685	0	0	-10.02	0
0.55355	124.05	538.11	18.445	-0.35716	0	0.19801	-40.894	454.43	24.526	0.15304	0	0.29027	0	15.662	0	0	-10.07	0
0.55397	123.83	536.27	18.689	-0.3571	0	0.19812	-42.552	459.01	24.622	0.15361	0	0.28981	0	15.605	0	0	-10.264	0
0.55438	123.63	533.8	18.67	-0.35692	0	0.19786	-43.635	462.72	25.048	0.15364	0	0.28986	0	15.56	0	0	-10.276	0
0.5548	123.63	530.99	18.648	-0.35657	0	0.19788	-44.056	465.84	25.47	0.1526	0	0.28996	0	15.603	0	0	-10.267	0
0.55522	123.41	528.26	18.675	-0.35644	0	0.19798	-44.63	468.51	25.967	0.15207	0	0.29018	0	15.541	0	0	-10.298	0
0.55563	123.25	525.98	19.051	-0.35642	0	0.19789	-44.834	472.32	26.44	0.15189	0	0.29	0	15.466	0	0	-10.042	0
0.55605	123.06	524.4	19.012	-0.35637	0	0.19809	-45.654	476.65	26.318	0.1523	0	0.28967	0	15.427	0	0	-10.033	0
0.55647	122.9	520.97	19.013	-0.35592	0	0.19786	-47.079	482.17	26.398	0.15379	0	0.2899	0	15.404	0	0	-10.161	0
0.55688	122.35	519.04	18.91	-0.35578	0	0.19809	-48.417	487.1	26.391	0.15423	0	0.28992	0	15.377	0	0	-10.28	0
0.5573	122	516.49	19.003	-0.3558	0	0.19806	-49.544	492.37	26.297	0.15613	0	0.29	0	15.311	0	0	-10.49	0
0.55772	121.5	513.5	19.248	-0.35553	0	0.19801	-50.239	495.56	26.431	0.15589	0	0.29002	0	15.266	0	0	-10.52	0
0.55814	121.5	510.42	19.139	-0.35509	0	0.19784	-51.184	498.84	26.766	0.15635	0	0.2901	0	15.265	0	0	-10.46	0
0.55855	121.01	508.05	19.123	-0.35511	0	0.19795	-51.937	502.05	26.894	0.15577	0	0.28973	0	15.234	0	0	-10.298	0
0.55897	120.88	506.29	19.083	-0.35512	0	0.1981	-53.454	505.49	27.451	0.15589	0	0.28987	0	15.194	0	0	-10.13	0
0.55939	120.33	503.04	19.201	-0.35481	0	0.19809	-54.881	508.94	27.56	0.15606	0	0.28999	0	15.089	0	0	-10.053	0
0.5598	120	500.76	19.184	-0.35472	0	0.19816	-56.382	512.82	27.421	0.15668	0	0.28994	0	15.031	0	0	-9.9935	0
0.56022	119.76	497.86	19.166	-0.35438	0	0.19809	-57.607	516.69	26.761	0.15727	0	0.29013	0	14.991	0	0	-9.9868	0
0.56064	119.24	494.61	19.412	-0.35425	0	0.19813	-59.068	519.88	26.122	0.15712	0	0.29016	0	14.947	0	0	-9.7815	0
0.56105	118.67	491.8	19.419	-0.35397	0	0.19798	-60.008	524.63	25.562	0.15809	0	0.28996	0	14.854	0	0	-9.6359	0
0.56147	118.49	489.34	19.336	-0.35377	0	0.19813	-61.256	528.85	25.451	0.15898	0	0.29039	0	14.819	0	0	-9.3833	0
0.56189	118.4	486.96	19.513	-0.35386	0	0.19818	-62.575	532.64	25.366	0.15929	0	0.29066	0	14.822	0	0	-9.1314	0
0.5623	118.07	483.97	19.385	-0.35356	0	0.19804	-64.21	536.34	25.477	0.16003	0	0.29057	0	14.8	0	0	-9.028	0
0.56272	117.57	481.07	19.546	-0.35339	0	0.19808	-65.684	539.44	25.41	0.15996	0	0.29065	0	14.698	0	0	-8.9694	0
0.56314	117.39	478.7	19.462	-0.3532	0	0.19817	-67.343	543.07	25.411	0.16061	0	0.2905	0	14.689	0	0	-8.9116	0
0.56355	117.21	475.71	19.509	-0.35299	0	0.19841	-68.656	545.9	25.207	0.16066	0	0.29067	0	14.671	0	0	-8.7985	0
0.56397	116.49	473.34	19.777	-0.35274	0	0.19842	-70.185	549.69	24.566	0.16105	0	0.29074	0	14.622	0	0	-8.6382	0
0.56439	116.33	469.91	19.543	-0.35256	0	0.19823	-71.746	554	23.864	0.16173	0	0.29072	0	14.521	0	0	-8.2221	0
0.5648	116.07	467.45	19.503	-0.35246	0	0.19841	-73.584	558.38	22.459	0.16189	0	0.29102	0	14.524	0	0	-7.8048	0
0.56522	115.91	464.1	19.465	-0.35211	0	0.19839	-75.03	562.35	21.582	0.16213	0	0.291	0	14.449	0	0	-7.4794	0
0.56564	115.39	461.38	19.492	-0.35191	0	0.19838	-76.471	567.09	20.98	0.16325	0	0.29089	0	14.413	0	0	-7.3085	0
0.56605	114.78	458.39	19.65	-0.35189	0	0.19845	-77.79	569.94	20.799	0.16268	0	0.29079	0	14.395	0	0	-7.1947	0
0.56647	114.34	455.5	19.59	-0.35151	0	0.1985	-79.235	573.29	20.707	0.16377	0	0.29114	0	14.346	0	0	-7.1189	0
0.56689	114.05	452.42	19.333	-0.35122	0	0.19838	-80.848	576.73	20.431	0.16423	0	0.2913	0	14.297	0	0	-6.9604	0
0.56731	113.9	450.39	19.513	-0.35128	0	0.19869	-82.354	581.47	20.163	0.16589	0	0.29133	0	14.236	0	0	-6.6818	0
0.56772	113.41	447.23	19.675	-0.35113	0	0.1987	-84.251	583.69	19.523	0.16526	0	0.29141	0	14.13	0	0	-6.2704	0
0.56814	112.93	444.68	19.744	-0.35108	0	0.19873	-85.806	586.43	18.493	0.16504	0	0.29173	0	14.133	0	0	-5.8747	0
0.56856	112.54	442.13	19.575	-0.35098	0	0.19888	-87.043	588.93	17.582	0.1646	0	0.29168	0	14.098	0	0	-5.5606	0
0.56897	112.05	438.62	19.602	-0.35051	0	0.19864	-88.08	594.02	16.581	0.1656	0	0.29172	0	14.023	0	0	-5.25	0
0.56939	111.7	436.07	19.653	-0.35018	0	0.19895	-89.058	596.51	15.831	0.16559	0	0.29182	0	13.935	0	0	-5.0451	0
0.56981	110.96	433.35	19.419	-0.35029	0	0.19886	-89.78	599.96	15.328	0.1665	0	0.29195	0	13.912	0	0	-4.966	0
0.57022	110.56	430.1	19.663	-0.34994	0	0.1988	-90.941	603.67	15.065	0.16668	0	0.29206	0	13.894	0	0	-4.7501	0
0.57064	110.19	427.72	19.626	-0.34986	0	0.19884	-92.265	608.41	14.703	0.1683	0	0.29217	0	13.806	0	0	-4.4252	0
0.57106	109.82	424.91	19.697	-0.34965	0	0.19907	-93.681	611.49	13.847	0.16904	0	0.29252	0	13.779	0	0	-3.9481	0
0.57147	109.29	422.45	19.639	-0.34946	0	0.19907	-94.883	614.68	12.76	0.16909	0	0.29246	0	13.682	0	0	-3.3686	0
0.57189	108.74	419.82	19.8	-0.34953	0	0.19925	-95.982	617.52	11.577	0.16919	0	0.2925	0	13.598	0	0	-3.1083	0
0.57231	108.26	416.92	19.434	-0.34919	0	0.1995	-96.648	619.84	10.456	0.16871	0	0.29266	0	13.593	0	0	-2.7557	0
0.57272	107.6	413.84	19.418	-0.3488	0	0.19933	-97.355	622.94	9.4929	0.1687	0	0.29289	0	13.536	0	0	-2.5204	0
0.57314	107.31	410.24	19.709	-0.34864	0	0.19916	-98.062	627.6	8.9355	0.16991	0	0.2928	0	13.438	0	0	-2.4297	0
0.57356	106.74	406.55	19.846	-0.34842	0	0.19926	-98.899	630.96	8.628	0.1703	0	0.29306	0	13.411	0	0	-2.2229	0
0.57397	106.55	404.26	19.873	-0.34826	0	0.19912	-99.809	634.41	8.1635	0.17064	0	0.29316	0	13.328	0	0	-2.0161	0
